<svg xmlns="http://www.w3.org/2000/svg" xmlns:xlink="http://www.w3.org/1999/xlink" width="512" zoomAndPan="magnify" viewBox="0 0 384 383.999986" height="512" preserveAspectRatio="xMidYMid meet" version="1.0"><defs><g/><clipPath id="fc57d1a3fe"><path d="M 192 0 C 85.960938 0 0 85.960938 0 192 C 0 298.039062 85.960938 384 192 384 C 298.039062 384 384 298.039062 384 192 C 384 85.960938 298.039062 0 192 0 Z M 192 0 " clip-rule="nonzero"/></clipPath><clipPath id="2da2949b87"><path d="M 0 0 L 384 0 L 384 384 L 0 384 Z M 0 0 " clip-rule="nonzero"/></clipPath><clipPath id="0cbb85f55c"><path d="M 192 0 C 85.960938 0 0 85.960938 0 192 C 0 298.039062 85.960938 384 192 384 C 298.039062 384 384 298.039062 384 192 C 384 85.960938 298.039062 0 192 0 Z M 192 0 " clip-rule="nonzero"/></clipPath><clipPath id="cda695daf8"><rect x="0" width="384" y="0" height="384"/></clipPath></defs><g clip-path="url(#fc57d1a3fe)"><g><g clip-path="url(#cda695daf8)"><g clip-path="url(#2da2949b87)"><g clip-path="url(#0cbb85f55c)"><rect x="-84.48" width="552.96" fill="#84c6e1" height="552.959979" y="-84.479997" fill-opacity="1"/></g></g></g></g></g><g fill="#ffffff" fill-opacity="1"><g transform="translate(32.970708, 261.374979)"><g><path d="M 39.15625 2.140625 L 12.6875 2.140625 C 13.289062 -1.429688 13.679688 -4.972656 13.859375 -8.484375 C 14.035156 -12.003906 14.125 -16.148438 14.125 -20.921875 L 14.125 -117.640625 C 14.125 -121.929688 14.035156 -125.832031 13.859375 -129.34375 C 13.679688 -132.863281 13.289062 -136.648438 12.6875 -140.703125 C 16.507812 -140.578125 20.054688 -140.457031 23.328125 -140.34375 C 26.609375 -140.226562 30.632812 -140.171875 35.40625 -140.171875 L 72.765625 -140.171875 C 89.691406 -140.171875 102.382812 -135.9375 110.84375 -127.46875 C 118.226562 -120.320312 121.921875 -110.070312 121.921875 -96.71875 C 121.921875 -83.132812 117.929688 -72.171875 109.953125 -63.828125 C 101.367188 -55.242188 88.675781 -50.953125 71.875 -50.953125 L 37.71875 -50.953125 L 37.71875 -21.09375 C 37.71875 -16.320312 37.835938 -12.117188 38.078125 -8.484375 C 38.316406 -4.859375 38.675781 -1.316406 39.15625 2.140625 Z M 37.71875 -71.515625 L 71.875 -71.515625 C 80.09375 -71.515625 86.375 -73.628906 90.71875 -77.859375 C 95.070312 -82.085938 97.25 -88.132812 97.25 -96 C 97.25 -103.394531 95.285156 -109.117188 91.359375 -113.171875 C 87.421875 -117.460938 80.925781 -119.609375 71.875 -119.609375 L 37.71875 -119.609375 Z M 37.71875 -71.515625 "/></g></g></g><g fill="#ffffff" fill-opacity="1"><g transform="translate(160.978073, 261.374979)"><g><path d="M 147.140625 2.140625 L 123.1875 2.140625 C 122.820312 -0.00390625 122.25 -2.800781 121.46875 -6.25 C 120.695312 -9.707031 119.835938 -12.925781 118.890625 -15.90625 L 99.765625 -82.421875 C 98.804688 -85.878906 97.910156 -89.425781 97.078125 -93.0625 C 96.242188 -96.695312 95.410156 -100.773438 94.578125 -105.296875 C 93.617188 -100.171875 92.691406 -95.789062 91.796875 -92.15625 C 90.910156 -88.519531 90.050781 -85.273438 89.21875 -82.421875 L 70.265625 -15.90625 C 69.191406 -11.851562 68.296875 -8.367188 67.578125 -5.453125 C 66.859375 -2.535156 66.382812 -0.00390625 66.15625 2.140625 L 42.375 2.140625 C 42.132812 0.597656 41.894531 -0.648438 41.65625 -1.609375 C 41.414062 -2.566406 41 -4.085938 40.40625 -6.171875 C 39.8125 -8.253906 38.859375 -11.617188 37.546875 -16.265625 L 9.125 -118.890625 C 7.570312 -124.128906 6.285156 -128.328125 5.265625 -131.484375 C 4.253906 -134.648438 3.15625 -137.546875 1.96875 -140.171875 L 30.578125 -140.171875 C 30.804688 -137.179688 31.160156 -134.195312 31.640625 -131.21875 C 32.117188 -128.238281 32.835938 -124.785156 33.796875 -120.859375 L 50.421875 -52.734375 C 51.015625 -49.992188 51.753906 -46.597656 52.640625 -42.546875 C 53.535156 -38.492188 54.222656 -34.921875 54.703125 -31.828125 C 55.898438 -37.421875 56.851562 -41.707031 57.5625 -44.6875 C 58.28125 -47.675781 59 -50.421875 59.71875 -52.921875 L 79.5625 -121.921875 C 81.582031 -129.191406 82.890625 -135.273438 83.484375 -140.171875 L 105.484375 -140.171875 C 105.722656 -138.023438 106.226562 -135.34375 107 -132.125 C 107.769531 -128.90625 108.632812 -125.625 109.59375 -122.28125 L 129.609375 -53.453125 C 130.085938 -51.898438 130.503906 -50.316406 130.859375 -48.703125 C 131.222656 -47.097656 131.703125 -45.015625 132.296875 -42.453125 C 132.890625 -39.890625 133.664062 -36.347656 134.625 -31.828125 C 134.976562 -33.253906 135.210938 -34.320312 135.328125 -35.03125 C 135.453125 -35.75 135.601562 -36.613281 135.78125 -37.625 C 135.957031 -38.644531 136.226562 -40.164062 136.59375 -42.1875 C 136.832031 -43.144531 137.097656 -44.425781 137.390625 -46.03125 C 137.691406 -47.644531 137.988281 -49.195312 138.28125 -50.6875 C 138.582031 -52.175781 138.789062 -53.160156 138.90625 -53.640625 L 155.546875 -121.03125 C 156.492188 -124.488281 157.207031 -127.914062 157.6875 -131.3125 C 158.164062 -134.707031 158.460938 -137.660156 158.578125 -140.171875 L 187.1875 -140.171875 C 185.988281 -137.179688 184.882812 -134.195312 183.875 -131.21875 C 182.863281 -128.238281 181.644531 -124.128906 180.21875 -118.890625 L 151.609375 -16.453125 C 151.015625 -13.941406 150.507812 -11.878906 150.09375 -10.265625 C 149.675781 -8.660156 149.347656 -7.441406 149.109375 -6.609375 C 148.390625 -4.109375 147.941406 -2.5 147.765625 -1.78125 C 147.585938 -1.070312 147.378906 0.234375 147.140625 2.140625 Z M 147.140625 2.140625 "/></g></g></g></svg>